<?xml version="1.0" encoding="UTF-8"?>
<svg xmlns="http://www.w3.org/2000/svg" xmlns:xlink="http://www.w3.org/1999/xlink" width="288px" height="252px" viewBox="0 0 288 252" version="1.1" id="Fig:dens">
  <metadata xmlns:gridsvg="http://www.stat.auckland.ac.nz/~paul/R/gridSVG/">
    <gridsvg:generator name="gridSVG" version="1.7-2" time="2020-11-10 16:02:48"/>
    <gridsvg:argument name="name" value="/Users/tristanvanneste/Documents/Bioinformatics/Applied high-throughput analysis/project_AHTA/miRNA profiling array results in serum RNA (healthy volunteers and breast tumor patients)/miRNA/dens.svg"/>
    <gridsvg:argument name="exportCoords" value="none"/>
    <gridsvg:argument name="exportMappings" value="none"/>
    <gridsvg:argument name="exportJS" value="none"/>
    <gridsvg:argument name="res" value="72"/>
    <gridsvg:argument name="prefix" value="Fig:dens"/>
    <gridsvg:argument name="addClasses" value="FALSE"/>
    <gridsvg:argument name="indent" value="TRUE"/>
    <gridsvg:argument name="htmlWrapper" value="FALSE"/>
    <gridsvg:argument name="usePaths" value="none"/>
    <gridsvg:argument name="uniqueNames" value="TRUE"/>
    <gridsvg:separator name="id.sep" value="."/>
    <gridsvg:separator name="gPath.sep" value="::"/>
    <gridsvg:separator name="vpPath.sep" value="::"/>
  </metadata>
  <g transform="translate(0, 252) scale(1, -1)">
    <g id="Fig:densgridSVG" fill="none" stroke="rgb(0,0,0)" stroke-dasharray="none" stroke-width="0.75" font-size="12" font-family="Helvetica, Arial, FreeSans, Liberation Sans, Nimbus Sans L, sans-serif" opacity="1" stroke-linecap="round" stroke-linejoin="round" stroke-miterlimit="10" stroke-opacity="1" fill-opacity="0" font-weight="normal" font-style="normal">
      <g id="Fig:densplot_01.background.1">
        <rect id="Fig:densplot_01.background.1.1" x="0" y="0" width="288" height="252" transform="" fill="none" stroke="none" stroke-opacity="0" fill-opacity="0"/>
      </g>
      <g id="Fig:densplot_01.toplevel.vp.1" font-size="12">
        <g id="Fig:densplot_01.ylab.vp.1">
          <g id="Fig:densplot_01.ylab.1">
            <g id="Fig:densplot_01.ylab.1.1" transform="translate(10.31, 138.09)" stroke-width="0.1">
              <g id="Fig:densplot_01.ylab.1.1.scale" transform="scale(1, -1)">
                <text x="0" y="0" id="Fig:densplot_01.ylab.1.1.text" transform="rotate(-90)" text-anchor="middle" opacity="1" stroke="rgb(0,0,0)" fill="rgb(0,0,0)" stroke-opacity="1" fill-opacity="1" font-size="12" font-weight="normal" font-style="normal">
                  <tspan id="Fig:densplot_01.ylab.1.1.tspan.1" dy="4.31" x="0">Density</tspan>
                </text>
              </g>
            </g>
          </g>
        </g>
        <g id="Fig:densplot_01.figure.vp.1"/>
        <defs>
          <clipPath id="Fig:densplot_01.panel.1.1.vp.1.clipPath">
            <rect x="44.8" y="42.19" width="231.2" height="191.81" fill="none" stroke="none"/>
          </clipPath>
        </defs>
        <g id="Fig:densplot_01.panel.1.1.vp.1" clip-path="url(#Fig:densplot_01.panel.1.1.vp.1.clipPath)"/>
        <g id="Fig:densplot_01.strip.1.1.off.vp.1"/>
        <g id="Fig:densplot_01.strip.left.1.1.off.vp.1">
          <g id="Fig:densplot_01.ticks.left.panel.1.1.1">
            <polyline id="Fig:densplot_01.ticks.left.panel.1.1.1.1" points="44.8,53.97 39.13,53.97" stroke="rgb(0,0,0)" opacity="1" stroke-dasharray="none" stroke-width="0.75" stroke-opacity="1" fill="none"/>
            <polyline id="Fig:densplot_01.ticks.left.panel.1.1.1.2" points="44.8,103.51 39.13,103.51" stroke="rgb(0,0,0)" opacity="1" stroke-dasharray="none" stroke-width="0.75" stroke-opacity="1" fill="none"/>
            <polyline id="Fig:densplot_01.ticks.left.panel.1.1.1.3" points="44.8,153.05 39.13,153.05" stroke="rgb(0,0,0)" opacity="1" stroke-dasharray="none" stroke-width="0.75" stroke-opacity="1" fill="none"/>
            <polyline id="Fig:densplot_01.ticks.left.panel.1.1.1.4" points="44.8,202.6 39.13,202.6" stroke="rgb(0,0,0)" opacity="1" stroke-dasharray="none" stroke-width="0.75" stroke-opacity="1" fill="none"/>
          </g>
          <g id="Fig:densplot_01.ticklabels.left.panel.1.1.1">
            <g id="Fig:densplot_01.ticklabels.left.panel.1.1.1.1" transform="translate(33.47, 53.97)" stroke-width="0.1">
              <g id="Fig:densplot_01.ticklabels.left.panel.1.1.1.1.scale" transform="scale(1, -1)">
                <text x="0" y="0" id="Fig:densplot_01.ticklabels.left.panel.1.1.1.1.text" transform="rotate(-90)" text-anchor="middle" stroke="rgb(0,0,0)" opacity="1" fill="rgb(0,0,0)" stroke-opacity="1" fill-opacity="1" font-size="9.6" font-weight="normal" font-style="normal">
                  <tspan id="Fig:densplot_01.ticklabels.left.panel.1.1.1.1.tspan.1" dy="0" x="0">0</tspan>
                </text>
              </g>
            </g>
            <g id="Fig:densplot_01.ticklabels.left.panel.1.1.1.2" transform="translate(33.47, 103.51)" stroke-width="0.1">
              <g id="Fig:densplot_01.ticklabels.left.panel.1.1.1.2.scale" transform="scale(1, -1)">
                <text x="0" y="0" id="Fig:densplot_01.ticklabels.left.panel.1.1.1.2.text" transform="rotate(-90)" text-anchor="middle" stroke="rgb(0,0,0)" opacity="1" fill="rgb(0,0,0)" stroke-opacity="1" fill-opacity="1" font-size="9.6" font-weight="normal" font-style="normal">
                  <tspan id="Fig:densplot_01.ticklabels.left.panel.1.1.1.2.tspan.1" dy="0" x="0">1</tspan>
                </text>
              </g>
            </g>
            <g id="Fig:densplot_01.ticklabels.left.panel.1.1.1.3" transform="translate(33.47, 153.05)" stroke-width="0.1">
              <g id="Fig:densplot_01.ticklabels.left.panel.1.1.1.3.scale" transform="scale(1, -1)">
                <text x="0" y="0" id="Fig:densplot_01.ticklabels.left.panel.1.1.1.3.text" transform="rotate(-90)" text-anchor="middle" stroke="rgb(0,0,0)" opacity="1" fill="rgb(0,0,0)" stroke-opacity="1" fill-opacity="1" font-size="9.6" font-weight="normal" font-style="normal">
                  <tspan id="Fig:densplot_01.ticklabels.left.panel.1.1.1.3.tspan.1" dy="0" x="0">2</tspan>
                </text>
              </g>
            </g>
            <g id="Fig:densplot_01.ticklabels.left.panel.1.1.1.4" transform="translate(33.47, 202.6)" stroke-width="0.1">
              <g id="Fig:densplot_01.ticklabels.left.panel.1.1.1.4.scale" transform="scale(1, -1)">
                <text x="0" y="0" id="Fig:densplot_01.ticklabels.left.panel.1.1.1.4.text" transform="rotate(-90)" text-anchor="middle" stroke="rgb(0,0,0)" opacity="1" fill="rgb(0,0,0)" stroke-opacity="1" fill-opacity="1" font-size="9.6" font-weight="normal" font-style="normal">
                  <tspan id="Fig:densplot_01.ticklabels.left.panel.1.1.1.4.tspan.1" dy="0" x="0">3</tspan>
                </text>
              </g>
            </g>
          </g>
        </g>
        <g id="Fig:densplot_01.panel.1.1.off.vp.1">
          <g id="Fig:densplot_01.ticks.bottom.panel.1.1.1">
            <polyline id="Fig:densplot_01.ticks.bottom.panel.1.1.1.1" points="98.19,42.19 98.19,36.52" stroke="rgb(0,0,0)" opacity="1" stroke-dasharray="none" stroke-width="0.75" stroke-opacity="1" fill="none"/>
            <polyline id="Fig:densplot_01.ticks.bottom.panel.1.1.1.2" points="163.65,42.19 163.65,36.52" stroke="rgb(0,0,0)" opacity="1" stroke-dasharray="none" stroke-width="0.75" stroke-opacity="1" fill="none"/>
            <polyline id="Fig:densplot_01.ticks.bottom.panel.1.1.1.3" points="229.11,42.19 229.11,36.52" stroke="rgb(0,0,0)" opacity="1" stroke-dasharray="none" stroke-width="0.75" stroke-opacity="1" fill="none"/>
          </g>
          <g id="Fig:densplot_01.ticklabels.bottom.panel.1.1.1">
            <g id="Fig:densplot_01.ticklabels.bottom.panel.1.1.1.1" transform="translate(98.19, 30.85)" stroke-width="0.1">
              <g id="Fig:densplot_01.ticklabels.bottom.panel.1.1.1.1.scale" transform="scale(1, -1)">
                <text x="0" y="0" id="Fig:densplot_01.ticklabels.bottom.panel.1.1.1.1.text" text-anchor="middle" stroke="rgb(0,0,0)" opacity="1" fill="rgb(0,0,0)" stroke-opacity="1" fill-opacity="1" font-size="9.6" font-weight="normal" font-style="normal">
                  <tspan id="Fig:densplot_01.ticklabels.bottom.panel.1.1.1.1.tspan.1" dy="7.18" x="0">1.5</tspan>
                </text>
              </g>
            </g>
            <g id="Fig:densplot_01.ticklabels.bottom.panel.1.1.1.2" transform="translate(163.65, 30.85)" stroke-width="0.1">
              <g id="Fig:densplot_01.ticklabels.bottom.panel.1.1.1.2.scale" transform="scale(1, -1)">
                <text x="0" y="0" id="Fig:densplot_01.ticklabels.bottom.panel.1.1.1.2.text" text-anchor="middle" stroke="rgb(0,0,0)" opacity="1" fill="rgb(0,0,0)" stroke-opacity="1" fill-opacity="1" font-size="9.6" font-weight="normal" font-style="normal">
                  <tspan id="Fig:densplot_01.ticklabels.bottom.panel.1.1.1.2.tspan.1" dy="7.18" x="0">2.0</tspan>
                </text>
              </g>
            </g>
            <g id="Fig:densplot_01.ticklabels.bottom.panel.1.1.1.3" transform="translate(229.11, 30.85)" stroke-width="0.1">
              <g id="Fig:densplot_01.ticklabels.bottom.panel.1.1.1.3.scale" transform="scale(1, -1)">
                <text x="0" y="0" id="Fig:densplot_01.ticklabels.bottom.panel.1.1.1.3.text" text-anchor="middle" stroke="rgb(0,0,0)" opacity="1" fill="rgb(0,0,0)" stroke-opacity="1" fill-opacity="1" font-size="9.6" font-weight="normal" font-style="normal">
                  <tspan id="Fig:densplot_01.ticklabels.bottom.panel.1.1.1.3.tspan.1" dy="7.18" x="0">2.5</tspan>
                </text>
              </g>
            </g>
          </g>
        </g>
        <defs>
          <clipPath id="Fig:densplot_01.panel.1.1.vp.2.clipPath">
            <rect x="44.8" y="42.19" width="231.2" height="191.81" fill="none" stroke="none"/>
          </clipPath>
        </defs>
        <g id="Fig:densplot_01.panel.1.1.vp.2" clip-path="url(#Fig:densplot_01.panel.1.1.vp.2.clipPath)">
          <g id="Fig:densplot_01.xyplot.lines.group.1.panel.1.1.1">
            <polyline id="Fig:densplot_01.xyplot.lines.group.1.panel.1.1.1.1" points="59.31,53.97 59.7,53.98 60.1,54 60.49,54.02 60.89,54.05 61.28,54.1 61.67,54.17 62.07,54.27 62.46,54.41 62.86,54.6 63.25,54.84 63.65,55.13 64.04,55.49 64.44,55.9 64.83,56.37 65.23,56.88 65.62,57.44 66.01,58.03 66.41,58.65 66.8,59.31 67.2,60 67.59,60.73 67.99,61.5 68.38,62.31 68.78,63.15 69.17,64.02 69.57,64.88 69.96,65.71 70.36,66.5 70.75,67.21 71.14,67.85 71.54,68.41 71.93,68.91 72.33,69.39 72.72,69.87 73.12,70.4 73.51,71.02 73.91,71.77 74.3,72.68 74.7,73.73 75.09,74.93 75.48,76.22 75.88,77.58 76.27,78.94 76.67,80.22 77.06,81.38 77.46,82.35 77.85,83.12 78.25,83.67 78.64,84.05 79.04,84.35 79.43,84.66 79.83,85.12 80.22,85.83 80.61,86.85 81.01,88.23 81.4,89.93 81.8,91.9 82.19,94.01 82.59,96.11 82.98,98.06 83.38,99.74 83.77,101.06 84.17,102.01 84.56,102.71 84.96,103.33 85.35,104.06 85.74,105.11 86.14,106.65 86.53,108.79 86.93,111.54 87.32,114.79 87.72,118.35 88.11,121.96 88.51,125.28 88.9,128 89.3,129.85 89.69,130.8 90.08,130.92 90.48,130.42 90.87,129.64 91.27,128.97 91.66,128.83 92.06,129.57 92.45,131.43 92.85,134.51 93.24,138.73 93.64,143.82 94.03,149.37 94.43,154.79 94.82,159.54 95.21,163.23 95.61,165.6 96,166.6 96.4,166.44 96.79,165.47 97.19,164.26 97.58,163.39 97.98,163.47 98.37,164.99 98.77,168.23 99.16,173.31 99.56,179.87 99.95,187.26 100.34,194.73 100.74,201.44 101.13,206.62 101.53,209.65 101.92,210.2 102.32,208.23 102.71,204.06 103.11,198.29 103.5,191.8 103.9,185.53 104.29,180.58 104.68,177.79 105.08,177.55 105.47,179.98 105.87,184.78 106.26,191.35 106.66,198.8 107.05,206.13 107.45,212.3 107.84,216.41 108.24,217.82 108.63,216.25 109.03,211.81 109.42,204.91 109.81,196.59 110.21,187.93 110.6,179.93 111,173.46 111.39,169.14 111.79,167.28 112.18,167.9 112.58,170.65 112.97,174.95 113.37,180.03 113.76,185.03 114.15,189.12 114.55,191.47 114.94,191.7 115.34,189.79 115.73,185.92 116.13,180.57 116.52,174.35 116.92,167.94 117.31,162 117.71,157.12 118.1,153.66 118.5,151.82 118.89,151.57 119.28,152.66 119.68,154.71 120.07,157.07 120.47,159.21 120.86,160.63 121.26,160.95 121.65,159.98 122.05,157.65 122.44,154.11 122.84,149.6 123.23,144.49 123.63,139.16 124.02,133.99 124.41,129.3 124.81,125.37 125.2,122.26 125.6,119.96 125.99,118.43 126.39,117.58 126.78,117.3 127.18,117.5 127.57,118.07 127.97,118.92 128.36,119.96 128.75,121.08 129.15,122.14 129.54,123.02 129.94,123.51 130.33,123.52 130.73,122.93 131.12,121.7 131.52,119.86 131.91,117.46 132.31,114.65 132.7,111.58 133.1,108.45 133.49,105.43 133.88,102.69 134.28,100.36 134.67,98.54 135.07,97.3 135.46,96.56 135.86,96.26 136.25,96.29 136.65,96.5 137.04,96.74 137.44,96.88 137.83,96.77 138.22,96.34 138.62,95.55 139.01,94.4 139.41,92.97 139.8,91.37 140.2,89.74 140.59,88.25 140.99,87.01 141.38,86.11 141.78,85.59 142.17,85.42 142.57,85.55 142.96,85.87 143.35,86.27 143.75,86.61 144.14,86.79 144.54,86.71 144.93,86.31 145.33,85.6 145.72,84.63 146.12,83.51 146.51,82.31 146.91,81.16 147.3,80.11 147.7,79.25 148.09,78.6 148.48,78.17 148.88,77.94 149.27,77.89 149.67,77.98 150.06,78.18 150.46,78.43 150.85,78.72 151.25,79.01 151.64,79.28 152.04,79.51 152.43,79.68 152.82,79.76 153.22,79.73 153.61,79.57 154.01,79.24 154.4,78.73 154.8,78.03 155.19,77.11 155.59,76.01 155.98,74.75 156.38,73.39 156.77,71.98 157.17,70.6 157.56,69.3 157.95,68.14 158.35,67.16 158.74,66.4 159.14,65.85 159.53,65.53 159.93,65.4 160.32,65.44 160.72,65.61 161.11,65.83 161.51,66.08 161.9,66.32 162.29,66.51 162.69,66.65 163.08,66.74 163.48,66.79 163.87,66.83 164.27,66.88 164.66,66.97 165.06,67.09 165.45,67.25 165.85,67.41 166.24,67.52 166.64,67.56 167.03,67.46 167.42,67.21 167.82,66.79 168.21,66.22 168.61,65.52 169,64.76 169.4,63.97 169.79,63.23 170.19,62.59 170.58,62.1 170.98,61.78 171.37,61.62 171.77,61.6 172.16,61.69 172.55,61.83 172.95,61.99 173.34,62.1 173.74,62.13 174.13,62.06 174.53,61.87 174.92,61.57 175.32,61.19 175.71,60.75 176.11,60.3 176.5,59.87 176.89,59.48 177.29,59.14 177.68,58.87 178.08,58.65 178.47,58.48 178.87,58.35 179.26,58.24 179.66,58.14 180.05,58.05 180.45,57.96 180.84,57.87 181.24,57.8 181.63,57.74 182.02,57.71 182.42,57.71 182.81,57.74 183.21,57.8 183.6,57.86 184,57.93 184.39,57.98 184.79,58 185.18,57.97 185.58,57.9 185.97,57.77 186.37,57.59 186.76,57.38 187.15,57.16 187.55,56.92 187.94,56.69 188.34,56.48 188.73,56.29 189.13,56.12 189.52,55.98 189.92,55.87 190.31,55.78 190.71,55.71 191.1,55.66 191.49,55.62 191.89,55.6 192.28,55.59 192.68,55.59 193.07,55.6 193.47,55.62 193.86,55.65 194.26,55.7 194.65,55.75 195.05,55.8 195.44,55.85 195.84,55.9 196.23,55.93 196.62,55.94 197.02,55.93 197.41,55.9 197.81,55.85 198.2,55.78 198.6,55.69 198.99,55.6 199.39,55.5 199.78,55.41 200.18,55.32 200.57,55.26 200.96,55.2 201.36,55.17 201.75,55.17 202.15,55.18 202.54,55.21 202.94,55.26 203.33,55.32 203.73,55.39 204.12,55.45 204.52,55.51 204.91,55.56 205.31,55.59 205.7,55.6 206.09,55.59 206.49,55.56 206.88,55.5 207.28,55.44 207.67,55.38 208.07,55.32 208.46,55.26 208.86,55.22 209.25,55.21 209.65,55.21 210.04,55.24 210.44,55.28 210.83,55.34 211.22,55.4 211.62,55.47 212.01,55.51 212.41,55.54 212.8,55.54 213.2,55.52 213.59,55.47 213.99,55.4 214.38,55.32 214.78,55.24 215.17,55.15 215.56,55.08 215.96,55.02 216.35,54.97 216.75,54.94 217.14,54.91 217.54,54.89 217.93,54.86 218.33,54.84 218.72,54.81 219.12,54.78 219.51,54.75 219.91,54.72 220.3,54.69 220.69,54.66 221.09,54.63 221.48,54.61 221.88,54.59 222.27,54.58 222.67,54.56 223.06,54.54 223.46,54.52 223.85,54.49 224.25,54.47 224.64,54.45 225.03,54.43 225.43,54.42 225.82,54.42 226.22,54.43 226.61,54.45 227.01,54.48 227.4,54.51 227.8,54.55 228.19,54.59 228.59,54.63 228.98,54.66 229.38,54.69 229.77,54.71 230.16,54.72 230.56,54.72 230.95,54.72 231.35,54.72 231.74,54.73 232.14,54.75 232.53,54.78 232.93,54.82 233.32,54.87 233.72,54.93 234.11,54.99 234.51,55.05 234.9,55.1 235.29,55.14 235.69,55.16 236.08,55.16 236.48,55.14 236.87,55.11 237.27,55.05 237.66,54.99 238.06,54.91 238.45,54.82 238.85,54.74 239.24,54.65 239.63,54.56 240.03,54.48 240.42,54.41 240.82,54.35 241.21,54.29 241.61,54.25 242,54.21 242.4,54.19 242.79,54.17 243.19,54.16 243.58,54.15 243.98,54.15 244.37,54.16 244.76,54.17 245.16,54.18 245.55,54.2 245.95,54.22 246.34,54.25 246.74,54.28 247.13,54.31 247.53,54.35 247.92,54.39 248.32,54.43 248.71,54.47 249.11,54.5 249.5,54.52 249.89,54.52 250.29,54.52 250.68,54.5 251.08,54.47 251.47,54.43 251.87,54.38 252.26,54.32 252.66,54.27 253.05,54.22 253.45,54.17 253.84,54.13 254.23,54.1 254.63,54.07 255.02,54.05 255.42,54.03 255.81,54.02 256.21,54 256.6,54 257,53.99 257.39,53.98 257.79,53.98 258.18,53.97 258.58,53.97 258.97,53.97 259.36,53.97 259.76,53.97 260.15,53.97 260.55,53.97 260.94,53.97" stroke-dasharray="none" stroke="rgb(31,120,180)" stroke-width="0.75" opacity="1" stroke-opacity="1" fill="none"/>
          </g>
          <g id="Fig:densplot_01.xyplot.lines.group.2.panel.1.1.1">
            <polyline id="Fig:densplot_01.xyplot.lines.group.2.panel.1.1.1.1" points="59.69,53.98 60.09,53.99 60.48,54.01 60.88,54.04 61.27,54.1 61.66,54.18 62.06,54.29 62.45,54.45 62.85,54.67 63.24,54.96 63.64,55.32 64.03,55.76 64.43,56.27 64.82,56.85 65.21,57.48 65.61,58.15 66,58.83 66.4,59.53 66.79,60.23 67.19,60.94 67.58,61.65 67.98,62.37 68.37,63.11 68.76,63.86 69.16,64.61 69.55,65.36 69.95,66.09 70.34,66.79 70.74,67.44 71.13,68.07 71.53,68.68 71.92,69.32 72.31,70.02 72.71,70.82 73.1,71.75 73.5,72.82 73.89,74.03 74.29,75.32 74.68,76.65 75.08,77.92 75.47,79.05 75.86,79.97 76.26,80.65 76.65,81.06 77.05,81.24 77.44,81.24 77.84,81.14 78.23,81.04 78.62,81.04 79.02,81.27 79.41,81.83 79.81,82.79 80.2,84.2 80.6,86.09 80.99,88.34 81.39,90.84 81.78,93.41 82.17,95.85 82.57,98 82.96,99.71 83.36,100.91 83.75,101.61 84.15,101.94 84.54,102.09 84.94,102.34 85.33,102.97 85.72,104.31 86.12,106.55 86.51,109.72 86.91,113.71 87.3,118.29 87.7,123.1 88.09,127.7 88.49,131.66 88.88,134.61 89.27,136.31 89.67,136.7 90.06,135.92 90.46,134.31 90.85,132.37 91.25,130.74 91.64,130.02 92.04,130.65 92.43,132.88 92.82,136.73 93.22,141.97 93.61,148.16 94.01,154.65 94.4,160.75 94.8,165.77 95.19,169.14 95.58,170.54 95.98,169.92 96.37,167.55 96.77,164.1 97.16,160.49 97.56,157.59 97.95,156.22 98.35,156.96 98.74,160.11 99.13,165.65 99.53,173.18 99.92,181.98 100.32,191.12 100.71,199.54 101.11,206.22 101.5,210.36 101.9,211.21 102.29,208.98 102.68,204.18 103.08,197.63 103.47,190.39 103.87,183.6 104.26,178.32 104.66,175.39 105.05,175.36 105.45,178.35 105.84,184.08 106.23,191.87 106.63,200.74 107.02,209.44 107.42,216.54 107.81,221.02 108.21,222.22 108.6,219.92 108.99,214.38 109.39,206.31 109.78,196.72 110.18,186.84 110.57,177.88 110.97,170.91 111.36,166.72 111.76,165.73 112.15,167.96 112.54,173.09 112.94,180.13 113.33,187.93 113.73,195.37 114.12,201.36 114.52,205.07 114.91,205.96 115.31,203.88 115.7,199.1 116.09,192.2 116.49,184.01 116.88,175.46 117.28,167.48 117.67,160.87 118.07,156.29 118.46,153.82 118.86,153.36 119.25,154.55 119.64,156.87 120.04,159.69 120.43,162.34 120.83,164.24 121.22,164.92 121.62,164.09 122.01,161.68 122.41,157.83 122.8,152.83 123.19,147.1 123.59,141.13 123.98,135.35 124.38,130.05 124.77,125.41 125.17,121.5 125.56,118.33 125.95,115.85 126.35,114.01 126.74,112.76 127.14,112.07 127.53,111.95 127.93,112.36 128.32,113.28 128.72,114.67 129.11,116.33 129.5,118.07 129.9,119.66 130.29,120.84 130.69,121.4 131.08,121.16 131.48,120.04 131.87,118.05 132.27,115.29 132.66,111.94 133.05,108.25 133.45,104.5 133.84,100.96 134.24,97.9 134.63,95.48 135.03,93.79 135.42,92.87 135.82,92.66 136.21,93.07 136.6,93.94 137,95.06 137.39,96.23 137.79,97.23 138.18,97.86 138.58,98 138.97,97.57 139.37,96.54 139.76,95.05 140.15,93.26 140.55,91.35 140.94,89.49 141.34,87.84 141.73,86.49 142.13,85.51 142.52,84.88 142.91,84.54 143.31,84.4 143.7,84.32 144.1,84.19 144.49,83.88 144.89,83.31 145.28,82.46 145.68,81.36 146.07,80.07 146.46,78.67 146.86,77.27 147.25,75.94 147.65,74.75 148.04,73.74 148.44,72.93 148.83,72.3 149.23,71.82 149.62,71.46 150.01,71.2 150.41,70.99 150.8,70.84 151.2,70.74 151.59,70.69 151.99,70.72 152.38,70.82 152.78,70.99 153.17,71.23 153.56,71.49 153.96,71.73 154.35,71.91 154.75,71.97 155.14,71.88 155.54,71.6 155.93,71.14 156.33,70.52 156.72,69.79 157.11,68.99 157.51,68.18 157.9,67.39 158.3,66.67 158.69,66.04 159.09,65.52 159.48,65.1 159.87,64.8 160.27,64.58 160.66,64.44 161.06,64.36 161.45,64.32 161.85,64.32 162.24,64.34 162.64,64.38 163.03,64.44 163.42,64.52 163.82,64.61 164.21,64.71 164.61,64.81 165,64.91 165.4,65 165.79,65.08 166.19,65.16 166.58,65.25 166.97,65.36 167.37,65.48 167.76,65.6 168.16,65.69 168.55,65.75 168.95,65.73 169.34,65.63 169.74,65.44 170.13,65.18 170.52,64.86 170.92,64.52 171.31,64.2 171.71,63.94 172.1,63.72 172.5,63.54 172.89,63.38 173.29,63.2 173.68,62.98 174.07,62.68 174.47,62.3 174.86,61.83 175.26,61.3 175.65,60.73 176.05,60.15 176.44,59.58 176.83,59.05 177.23,58.57 177.62,58.16 178.02,57.81 178.41,57.52 178.81,57.28 179.2,57.1 179.6,56.97 179.99,56.88 180.38,56.84 180.78,56.85 181.17,56.9 181.57,57 181.96,57.14 182.36,57.33 182.75,57.54 183.15,57.77 183.54,58.01 183.93,58.24 184.33,58.43 184.72,58.59 185.12,58.69 185.51,58.73 185.91,58.72 186.3,58.67 186.7,58.59 187.09,58.5 187.48,58.41 187.88,58.35 188.27,58.32 188.67,58.32 189.06,58.32 189.46,58.33 189.85,58.33 190.25,58.29 190.64,58.2 191.03,58.07 191.43,57.9 191.82,57.69 192.22,57.47 192.61,57.25 193.01,57.05 193.4,56.89 193.79,56.77 194.19,56.69 194.58,56.66 194.98,56.65 195.37,56.65 195.77,56.66 196.16,56.65 196.56,56.62 196.95,56.57 197.34,56.48 197.74,56.38 198.13,56.27 198.53,56.15 198.92,56.03 199.32,55.93 199.71,55.85 200.11,55.79 200.5,55.74 200.89,55.71 201.29,55.69 201.68,55.66 202.08,55.63 202.47,55.6 202.87,55.55 203.26,55.49 203.66,55.42 204.05,55.34 204.44,55.26 204.84,55.19 205.23,55.13 205.63,55.08 206.02,55.05 206.42,55.04 206.81,55.05 207.21,55.07 207.6,55.1 207.99,55.14 208.39,55.18 208.78,55.21 209.18,55.24 209.57,55.27 209.97,55.28 210.36,55.29 210.75,55.3 211.15,55.29 211.54,55.28 211.94,55.26 212.33,55.22 212.73,55.17 213.12,55.11 213.52,55.03 213.91,54.95 214.3,54.85 214.7,54.76 215.09,54.67 215.49,54.59 215.88,54.52 216.28,54.47 216.67,54.44 217.07,54.43 217.46,54.43 217.85,54.43 218.25,54.45 218.64,54.46 219.04,54.48 219.43,54.5 219.83,54.51 220.22,54.53 220.62,54.54 221.01,54.55 221.4,54.56 221.8,54.57 222.19,54.58 222.59,54.59 222.98,54.59 223.38,54.59 223.77,54.59 224.17,54.59 224.56,54.59 224.95,54.6 225.35,54.61 225.74,54.64 226.14,54.68 226.53,54.73 226.93,54.79 227.32,54.86 227.71,54.93 228.11,54.99 228.5,55.03 228.9,55.06 229.29,55.07 229.69,55.04 230.08,55 230.48,54.93 230.87,54.86 231.26,54.78 231.66,54.7 232.05,54.62 232.45,54.56 232.84,54.51 233.24,54.47 233.63,54.44 234.03,54.42 234.42,54.4 234.81,54.4 235.21,54.39 235.6,54.39 236,54.38 236.39,54.37 236.79,54.37 237.18,54.36 237.58,54.36 237.97,54.36 238.36,54.37 238.76,54.38 239.15,54.4 239.55,54.42 239.94,54.44 240.34,54.46 240.73,54.48 241.12,54.49 241.52,54.5 241.91,54.5 242.31,54.49 242.7,54.47 243.1,54.45 243.49,54.43 243.89,54.41 244.28,54.39 244.67,54.37 245.07,54.36 245.46,54.36 245.86,54.37 246.25,54.39 246.65,54.42 247.04,54.46 247.44,54.51 247.83,54.56 248.22,54.62 248.62,54.67 249.01,54.72 249.41,54.75 249.8,54.76 250.2,54.76 250.59,54.74 250.99,54.7 251.38,54.64 251.77,54.58 252.17,54.51 252.56,54.45 252.96,54.39 253.35,54.33 253.75,54.28 254.14,54.24 254.54,54.2 254.93,54.17 255.32,54.14 255.72,54.11 256.11,54.09 256.51,54.07 256.9,54.05 257.3,54.03 257.69,54.01 258.08,54 258.48,53.99 258.87,53.98 259.27,53.98 259.66,53.97 260.06,53.97 260.45,53.97 260.85,53.97 261.24,53.97" stroke-dasharray="none" stroke="rgb(31,120,180)" stroke-width="0.75" opacity="1" stroke-opacity="1" fill="none"/>
          </g>
          <g id="Fig:densplot_01.xyplot.lines.group.3.panel.1.1.1">
            <polyline id="Fig:densplot_01.xyplot.lines.group.3.panel.1.1.1.1" points="59.38,53.98 59.77,53.99 60.17,54.01 60.57,54.04 60.96,54.09 61.36,54.17 61.75,54.28 62.15,54.45 62.54,54.68 62.94,54.98 63.34,55.39 63.73,55.9 64.13,56.53 64.52,57.29 64.92,58.19 65.31,59.23 65.71,60.42 66.1,61.77 66.5,63.25 66.9,64.87 67.29,66.62 67.69,68.45 68.08,70.34 68.48,72.24 68.87,74.1 69.27,75.89 69.67,77.56 70.06,79.1 70.46,80.5 70.85,81.77 71.25,82.93 71.64,83.99 72.04,84.98 72.43,85.9 72.83,86.77 73.23,87.57 73.62,88.28 74.02,88.91 74.41,89.43 74.81,89.85 75.2,90.2 75.6,90.49 76,90.79 76.39,91.13 76.79,91.58 77.18,92.19 77.58,92.98 77.97,94.02 78.37,95.29 78.76,96.8 79.16,98.57 79.56,100.61 79.95,102.92 80.35,105.51 80.74,108.39 81.14,111.51 81.53,114.79 81.93,118.11 82.33,121.3 82.72,124.18 83.12,126.5 83.51,128.14 83.91,129.06 84.3,129.33 84.7,129.11 85.09,128.66 85.49,128.27 85.89,128.26 86.28,128.87 86.68,130.28 87.07,132.54 87.47,135.56 87.86,139.12 88.26,142.89 88.66,146.45 89.05,149.44 89.45,151.59 89.84,152.78 90.24,153.04 90.63,152.54 91.03,151.62 91.43,150.68 91.82,150.16 92.22,150.44 92.61,151.83 93.01,154.46 93.4,158.33 93.8,163.12 94.19,168.36 94.59,173.51 94.99,178.07 95.38,181.59 95.78,183.79 96.17,184.6 96.57,184.16 96.96,182.84 97.36,181.15 97.76,179.71 98.15,179.1 98.55,179.87 98.94,182.27 99.34,186.15 99.73,191.12 100.13,196.58 100.52,201.8 100.92,206.01 101.32,208.55 101.71,208.96 102.11,207.07 102.5,203.03 102.9,197.31 103.29,190.65 103.69,183.97 104.09,178.34 104.48,174.54 104.88,173.12 105.27,174.29 105.67,177.93 106.06,183.55 106.46,190.41 106.85,197.55 107.25,203.96 107.65,208.66 108.04,210.91 108.44,210.25 108.83,206.56 109.23,200.16 109.62,191.98 110.02,182.98 110.42,174.14 110.81,166.37 111.21,160.41 111.6,156.7 112,155.4 112.39,156.35 112.79,159.1 113.18,163.01 113.58,167.32 113.98,171.22 114.37,173.89 114.77,174.93 115.16,174.15 115.56,171.65 115.95,167.75 116.35,162.95 116.75,157.81 117.14,152.91 117.54,148.71 117.93,145.5 118.33,143.39 118.72,142.28 119.12,141.94 119.51,141.97 119.91,141.92 120.31,141.47 120.7,140.4 121.1,138.61 121.49,136.15 121.89,133.16 122.28,129.84 122.68,126.44 123.08,123.14 123.47,120.09 123.87,117.35 124.26,114.91 124.66,112.7 125.05,110.59 125.45,108.52 125.85,106.43 126.24,104.33 126.64,102.27 127.03,100.32 127.43,98.59 127.82,97.15 128.22,96.08 128.61,95.4 129.01,95.09 129.41,95.07 129.8,95.25 130.2,95.45 130.59,95.52 130.99,95.32 131.38,94.78 131.78,93.84 132.18,92.52 132.57,90.87 132.97,89.02 133.36,87.09 133.76,85.23 134.15,83.57 134.55,82.24 134.94,81.33 135.34,80.83 135.74,80.7 136.13,80.87 136.53,81.21 136.92,81.62 137.32,81.97 137.71,82.15 138.11,82.09 138.51,81.75 138.9,81.15 139.3,80.34 139.69,79.41 140.09,78.49 140.48,77.72 140.88,77.18 141.27,76.94 141.67,77 142.07,77.33 142.46,77.84 142.86,78.44 143.25,78.99 143.65,79.38 144.04,79.52 144.44,79.36 144.84,78.88 145.23,78.13 145.63,77.2 146.02,76.19 146.42,75.21 146.81,74.32 147.21,73.57 147.6,72.95 148,72.45 148.4,72.02 148.79,71.61 149.19,71.16 149.58,70.64 149.98,70.03 150.37,69.34 150.77,68.62 151.17,67.91 151.56,67.26 151.96,66.72 152.35,66.32 152.75,66.09 153.14,66.01 153.54,66.08 153.93,66.26 154.33,66.52 154.73,66.81 155.12,67.1 155.52,67.34 155.91,67.5 156.31,67.57 156.7,67.55 157.1,67.43 157.5,67.24 157.89,66.98 158.29,66.68 158.68,66.34 159.08,66 159.47,65.67 159.87,65.36 160.27,65.08 160.66,64.83 161.06,64.59 161.45,64.35 161.85,64.11 162.24,63.84 162.64,63.56 163.03,63.26 163.43,62.95 163.83,62.67 164.22,62.42 164.62,62.22 165.01,62.08 165.41,62.01 165.8,61.99 166.2,62.01 166.6,62.04 166.99,62.07 167.39,62.06 167.78,62.03 168.18,61.97 168.57,61.9 168.97,61.84 169.36,61.8 169.76,61.82 170.16,61.92 170.55,62.12 170.95,62.42 171.34,62.82 171.74,63.31 172.13,63.85 172.53,64.39 172.93,64.89 173.32,65.31 173.72,65.6 174.11,65.73 174.51,65.68 174.9,65.46 175.3,65.09 175.69,64.59 176.09,64.02 176.49,63.42 176.88,62.84 177.28,62.3 177.67,61.82 178.07,61.41 178.46,61.05 178.86,60.75 179.26,60.48 179.65,60.24 180.05,60.03 180.44,59.85 180.84,59.68 181.23,59.56 181.63,59.48 182.02,59.45 182.42,59.47 182.82,59.56 183.21,59.69 183.61,59.86 184,60.05 184.4,60.23 184.79,60.38 185.19,60.47 185.59,60.49 185.98,60.42 186.38,60.27 186.77,60.05 187.17,59.77 187.56,59.45 187.96,59.13 188.35,58.82 188.75,58.55 189.15,58.33 189.54,58.17 189.94,58.08 190.33,58.06 190.73,58.13 191.12,58.28 191.52,58.48 191.92,58.75 192.31,59.04 192.71,59.34 193.1,59.61 193.5,59.85 193.89,60.03 194.29,60.15 194.69,60.2 195.08,60.18 195.48,60.1 195.87,59.96 196.27,59.79 196.66,59.59 197.06,59.37 197.45,59.15 197.85,58.94 198.25,58.74 198.64,58.57 199.04,58.44 199.43,58.34 199.83,58.28 200.22,58.26 200.62,58.26 201.02,58.27 201.41,58.27 201.81,58.27 202.2,58.23 202.6,58.15 202.99,58.03 203.39,57.87 203.78,57.68 204.18,57.48 204.58,57.27 204.97,57.07 205.37,56.9 205.76,56.77 206.16,56.67 206.55,56.61 206.95,56.59 207.35,56.59 207.74,56.61 208.14,56.62 208.53,56.63 208.93,56.62 209.32,56.59 209.72,56.54 210.11,56.48 210.51,56.42 210.91,56.37 211.3,56.32 211.7,56.29 212.09,56.29 212.49,56.3 212.88,56.32 213.28,56.35 213.68,56.38 214.07,56.41 214.47,56.42 214.86,56.41 215.26,56.39 215.65,56.36 216.05,56.3 216.44,56.24 216.84,56.16 217.24,56.08 217.63,56.01 218.03,55.94 218.42,55.88 218.82,55.85 219.21,55.84 219.61,55.86 220.01,55.9 220.4,55.98 220.8,56.08 221.19,56.19 221.59,56.31 221.98,56.42 222.38,56.51 222.77,56.57 223.17,56.6 223.57,56.59 223.96,56.55 224.36,56.48 224.75,56.39 225.15,56.3 225.54,56.19 225.94,56.09 226.34,56 226.73,55.92 227.13,55.84 227.52,55.78 227.92,55.72 228.31,55.67 228.71,55.63 229.11,55.58 229.5,55.54 229.9,55.5 230.29,55.47 230.69,55.44 231.08,55.41 231.48,55.4 231.87,55.39 232.27,55.4 232.67,55.4 233.06,55.41 233.46,55.42 233.85,55.43 234.25,55.44 234.64,55.45 235.04,55.46 235.44,55.49 235.83,55.53 236.23,55.6 236.62,55.68 237.02,55.78 237.41,55.88 237.81,55.99 238.2,56.09 238.6,56.17 239,56.22 239.39,56.25 239.79,56.24 240.18,56.22 240.58,56.19 240.97,56.16 241.37,56.14 241.77,56.13 242.16,56.13 242.56,56.14 242.95,56.15 243.35,56.15 243.74,56.15 244.14,56.12 244.53,56.08 244.93,56.02 245.33,55.96 245.72,55.89 246.12,55.84 246.51,55.79 246.91,55.76 247.3,55.74 247.7,55.73 248.1,55.71 248.49,55.69 248.89,55.65 249.28,55.6 249.68,55.54 250.07,55.47 250.47,55.4 250.86,55.32 251.26,55.25 251.66,55.19 252.05,55.13 252.45,55.08 252.84,55.03 253.24,54.98 253.63,54.92 254.03,54.86 254.43,54.79 254.82,54.71 255.22,54.63 255.61,54.54 256.01,54.45 256.4,54.36 256.8,54.28 257.2,54.21 257.59,54.15 257.99,54.1 258.38,54.06 258.78,54.03 259.17,54.01 259.57,53.99 259.96,53.98 260.36,53.98 260.76,53.97 261.15,53.97 261.55,53.97" stroke-dasharray="none" stroke="rgb(31,120,180)" stroke-width="0.75" opacity="1" stroke-opacity="1" fill="none"/>
          </g>
          <g id="Fig:densplot_01.xyplot.lines.group.4.panel.1.1.1">
            <polyline id="Fig:densplot_01.xyplot.lines.group.4.panel.1.1.1.1" points="59.13,53.98 59.52,53.99 59.92,54 60.31,54.03 60.71,54.07 61.1,54.13 61.5,54.21 61.89,54.33 62.29,54.49 62.68,54.7 63.08,54.97 63.47,55.3 63.87,55.69 64.26,56.14 64.66,56.66 65.05,57.23 65.45,57.85 65.84,58.52 66.24,59.24 66.64,59.99 67.03,60.8 67.43,61.65 67.82,62.56 68.22,63.5 68.61,64.49 69.01,65.49 69.4,66.48 69.8,67.43 70.19,68.3 70.59,69.07 70.98,69.71 71.38,70.21 71.77,70.6 72.17,70.9 72.56,71.15 72.96,71.41 73.35,71.72 73.75,72.15 74.14,72.74 74.54,73.52 74.93,74.49 75.33,75.64 75.72,76.93 76.12,78.28 76.52,79.61 76.91,80.85 77.31,81.93 77.7,82.81 78.1,83.51 78.49,84.05 78.89,84.49 79.28,84.95 79.68,85.52 80.07,86.33 80.47,87.46 80.86,88.98 81.26,90.86 81.65,93.03 82.05,95.38 82.44,97.77 82.84,100.07 83.23,102.14 83.63,103.9 84.02,105.3 84.42,106.39 84.81,107.26 85.21,108.07 85.6,109.02 86,110.3 86.39,112.03 86.79,114.25 87.19,116.92 87.58,119.9 87.98,123.02 88.37,126.02 88.77,128.68 89.16,130.81 89.56,132.3 89.95,133.14 90.35,133.43 90.74,133.43 91.14,133.48 91.53,133.91 91.93,135.02 92.32,136.99 92.72,139.88 93.11,143.63 93.51,148.01 93.9,152.66 94.3,157.17 94.69,161.11 95.09,164.11 95.48,165.85 95.88,166.31 96.27,165.74 96.67,164.49 97.07,163.07 97.46,162.02 97.86,161.84 98.25,162.96 98.65,165.6 99.04,169.76 99.44,175.23 99.83,181.53 100.23,188.06 100.62,193.94 101.02,198.47 101.41,201.11 101.81,201.56 102.2,199.81 102.6,196.12 102.99,191.03 103.39,185.27 103.78,179.68 104.18,175.08 104.57,172.19 104.97,171.52 105.36,173.36 105.76,177.61 106.15,183.62 106.55,190.63 106.94,197.76 107.34,204.09 107.74,208.8 108.13,211.28 108.53,211.2 108.92,208.55 109.32,203.67 109.71,197.14 110.11,189.8 110.5,182.6 110.9,176.5 111.29,172.15 111.69,169.93 112.08,169.96 112.48,172.04 112.87,175.72 113.27,180.36 113.66,185.19 114.06,189.45 114.45,192.45 114.85,193.68 115.24,192.83 115.64,189.76 116.03,184.97 116.43,178.92 116.82,172.18 117.22,165.35 117.62,158.96 118.01,153.42 118.41,149.03 118.8,145.91 119.2,144.06 119.59,143.35 119.99,143.6 120.38,144.55 120.78,145.92 121.17,147.42 121.57,148.84 121.96,149.97 122.36,150.69 122.75,150.86 123.15,150.41 123.54,149.31 123.94,147.55 124.33,145.17 124.73,142.27 125.12,138.97 125.52,135.44 125.91,131.89 126.31,128.53 126.7,125.52 127.1,123.01 127.49,121.11 127.89,119.86 128.29,119.25 128.68,119.22 129.08,119.63 129.47,120.31 129.87,121.06 130.26,121.65 130.66,121.84 131.05,121.5 131.45,120.54 131.84,118.96 132.24,116.82 132.63,114.26 133.03,111.44 133.42,108.55 133.82,105.77 134.21,103.28 134.61,101.2 135,99.59 135.4,98.52 135.79,97.92 136.19,97.7 136.58,97.72 136.98,97.85 137.37,97.95 137.77,97.9 138.17,97.58 138.56,96.92 138.96,95.9 139.35,94.53 139.75,92.87 140.14,91 140.54,89.02 140.93,87.08 141.33,85.24 141.72,83.59 142.12,82.16 142.51,80.98 142.91,80.03 143.3,79.3 143.7,78.77 144.09,78.41 144.49,78.21 144.88,78.15 145.28,78.24 145.67,78.5 146.07,78.9 146.46,79.44 146.86,80.09 147.25,80.79 147.65,81.48 148.04,82.08 148.44,82.52 148.84,82.73 149.23,82.65 149.63,82.25 150.02,81.55 150.42,80.56 150.81,79.37 151.21,78.07 151.6,76.77 152,75.54 152.39,74.45 152.79,73.56 153.18,72.9 153.58,72.45 153.97,72.19 154.37,72.08 154.76,72.04 155.16,72.02 155.55,71.94 155.95,71.75 156.34,71.44 156.74,70.99 157.13,70.42 157.53,69.77 157.92,69.09 158.32,68.41 158.72,67.79 159.11,67.24 159.51,66.8 159.9,66.45 160.3,66.19 160.69,65.99 161.09,65.82 161.48,65.66 161.88,65.5 162.27,65.34 162.67,65.19 163.06,65.07 163.46,65.01 163.85,65.04 164.25,65.19 164.64,65.46 165.04,65.86 165.43,66.36 165.83,66.89 166.22,67.4 166.62,67.81 167.01,68.07 167.41,68.13 167.8,67.97 168.2,67.58 168.59,66.99 168.99,66.24 169.39,65.38 169.78,64.48 170.18,63.59 170.57,62.77 170.97,62.04 171.36,61.42 171.76,60.89 172.15,60.46 172.55,60.11 172.94,59.82 173.34,59.59 173.73,59.39 174.13,59.23 174.52,59.11 174.92,59.02 175.31,58.98 175.71,58.98 176.1,59.01 176.5,59.07 176.89,59.14 177.29,59.21 177.68,59.26 178.08,59.26 178.47,59.21 178.87,59.1 179.27,58.93 179.66,58.7 180.06,58.43 180.45,58.13 180.85,57.82 181.24,57.52 181.64,57.26 182.03,57.03 182.43,56.84 182.82,56.7 183.22,56.6 183.61,56.53 184.01,56.49 184.4,56.48 184.8,56.5 185.19,56.54 185.59,56.6 185.98,56.68 186.38,56.78 186.77,56.9 187.17,57.02 187.56,57.15 187.96,57.27 188.35,57.37 188.75,57.44 189.14,57.47 189.54,57.45 189.94,57.39 190.33,57.29 190.73,57.18 191.12,57.06 191.52,56.96 191.91,56.87 192.31,56.81 192.7,56.78 193.1,56.78 193.49,56.79 193.89,56.8 194.28,56.8 194.68,56.79 195.07,56.75 195.47,56.68 195.86,56.58 196.26,56.47 196.65,56.34 197.05,56.21 197.44,56.09 197.84,55.98 198.23,55.89 198.63,55.81 199.02,55.75 199.42,55.7 199.82,55.65 200.21,55.62 200.61,55.59 201,55.56 201.4,55.52 201.79,55.49 202.19,55.46 202.58,55.44 202.98,55.41 203.37,55.39 203.77,55.38 204.16,55.37 204.56,55.36 204.95,55.36 205.35,55.36 205.74,55.36 206.14,55.35 206.53,55.33 206.93,55.31 207.32,55.29 207.72,55.26 208.11,55.23 208.51,55.21 208.9,55.19 209.3,55.18 209.69,55.17 210.09,55.16 210.49,55.16 210.88,55.15 211.28,55.15 211.67,55.14 212.07,55.12 212.46,55.1 212.86,55.07 213.25,55.04 213.65,55.01 214.04,54.98 214.44,54.95 214.83,54.92 215.23,54.9 215.62,54.88 216.02,54.86 216.41,54.86 216.81,54.86 217.2,54.88 217.6,54.91 217.99,54.98 218.39,55.09 218.78,55.25 219.18,55.47 219.57,55.76 219.97,56.12 220.37,56.55 220.76,57.03 221.16,57.54 221.55,58.05 221.95,58.5 222.34,58.88 222.74,59.14 223.13,59.26 223.53,59.22 223.92,59.03 224.32,58.7 224.71,58.26 225.11,57.75 225.5,57.2 225.9,56.67 226.29,56.17 226.69,55.73 227.08,55.36 227.48,55.06 227.87,54.83 228.27,54.67 228.66,54.55 229.06,54.47 229.45,54.42 229.85,54.39 230.24,54.37 230.64,54.36 231.04,54.36 231.43,54.35 231.83,54.35 232.22,54.35 232.62,54.35 233.01,54.36 233.41,54.37 233.8,54.39 234.2,54.41 234.59,54.44 234.99,54.48 235.38,54.51 235.78,54.54 236.17,54.57 236.57,54.59 236.96,54.61 237.36,54.61 237.75,54.6 238.15,54.59 238.54,54.57 238.94,54.55 239.33,54.53 239.73,54.51 240.12,54.49 240.52,54.49 240.92,54.48 241.31,54.49 241.71,54.5 242.1,54.51 242.5,54.52 242.89,54.53 243.29,54.53 243.68,54.53 244.08,54.52 244.47,54.5 244.87,54.47 245.26,54.44 245.66,54.4 246.05,54.36 246.45,54.33 246.84,54.29 247.24,54.26 247.63,54.24 248.03,54.22 248.42,54.2 248.82,54.19 249.21,54.18 249.61,54.18 250,54.18 250.4,54.19 250.79,54.19 251.19,54.19 251.59,54.2 251.98,54.2 252.38,54.19 252.77,54.19 253.17,54.18 253.56,54.16 253.96,54.15 254.35,54.13 254.75,54.11 255.14,54.09 255.54,54.07 255.93,54.05 256.33,54.03 256.72,54.02 257.12,54 257.51,53.99 257.91,53.99 258.3,53.98 258.7,53.98 259.09,53.97 259.49,53.97 259.88,53.97 260.28,53.97 260.67,53.97 261.07,53.97" stroke-dasharray="none" stroke="rgb(31,120,180)" stroke-width="0.75" opacity="1" stroke-opacity="1" fill="none"/>
          </g>
          <g id="Fig:densplot_01.xyplot.lines.group.5.panel.1.1.1">
            <polyline id="Fig:densplot_01.xyplot.lines.group.5.panel.1.1.1.1" points="59.1,53.97 59.5,53.98 59.89,53.99 60.29,54.01 60.69,54.04 61.08,54.08 61.48,54.15 61.88,54.25 62.27,54.38 62.67,54.56 63.07,54.79 63.46,55.09 63.86,55.45 64.26,55.89 64.65,56.4 65.05,56.97 65.45,57.59 65.84,58.24 66.24,58.92 66.64,59.59 67.03,60.25 67.43,60.89 67.83,61.52 68.22,62.13 68.62,62.76 69.02,63.4 69.41,64.08 69.81,64.8 70.21,65.57 70.6,66.36 71,67.17 71.4,67.95 71.79,68.67 72.19,69.33 72.59,69.91 72.98,70.41 73.38,70.87 73.78,71.31 74.17,71.78 74.57,72.33 74.97,72.98 75.36,73.78 75.76,74.72 76.16,75.78 76.55,76.93 76.95,78.11 77.35,79.28 77.74,80.42 78.14,81.51 78.54,82.56 78.93,83.6 79.33,84.67 79.73,85.84 80.12,87.14 80.52,88.63 80.92,90.3 81.31,92.11 81.71,93.99 82.11,95.84 82.5,97.58 82.9,99.11 83.3,100.38 83.69,101.39 84.09,102.17 84.49,102.82 84.88,103.46 85.28,104.27 85.68,105.42 86.07,107.05 86.47,109.19 86.87,111.84 87.26,114.89 87.66,118.18 88.06,121.48 88.45,124.57 88.85,127.23 89.25,129.31 89.64,130.73 90.04,131.54 90.44,131.88 90.83,132.05 91.23,132.39 91.63,133.24 92.02,134.86 92.42,137.41 92.82,140.92 93.21,145.26 93.61,150.17 94.01,155.27 94.4,160.1 94.8,164.24 95.2,167.3 95.59,168.97 95.99,169.26 96.39,168.42 96.78,166.85 97.18,165.04 97.58,163.53 97.97,162.84 98.37,163.35 98.77,165.28 99.16,168.62 99.56,173.15 99.96,178.43 100.35,183.85 100.75,188.63 101.15,192.14 101.54,193.94 101.94,193.83 102.34,191.85 102.73,188.33 103.13,183.82 103.53,179.02 103.92,174.69 104.32,171.56 104.72,170.2 105.11,170.95 105.51,173.95 105.91,178.91 106.3,185.1 106.7,191.74 107.1,197.96 107.49,202.95 107.89,206.04 108.29,206.81 108.68,205.16 109.08,201.29 109.48,195.7 109.87,189.12 110.27,182.39 110.67,176.48 111.06,172.16 111.46,169.85 111.86,169.73 112.25,171.68 112.65,175.31 113.05,180.03 113.44,185.15 113.84,189.92 114.24,193.67 114.63,195.9 115.03,196.3 115.43,194.84 115.82,191.68 116.22,187.46 116.62,182.76 117.01,178.17 117.41,174.18 117.81,171.13 118.2,169.17 118.6,168.25 119,168.14 119.39,168.46 119.79,168.81 120.19,168.77 120.58,167.96 120.98,166.18 121.38,163.47 121.77,160 122.17,156.04 122.57,151.92 122.96,148 123.36,144.56 123.76,141.81 124.15,139.85 124.55,138.66 124.95,138.08 125.34,137.89 125.74,137.79 126.14,137.46 126.53,136.7 126.93,135.37 127.33,133.44 127.72,130.98 128.12,128.12 128.52,125.08 128.91,122.07 129.31,119.33 129.71,117.01 130.1,115.24 130.5,114.06 130.9,113.43 131.29,113.17 131.69,113.09 132.09,112.99 132.48,112.68 132.88,111.99 133.28,110.82 133.67,109.14 134.07,106.97 134.47,104.41 134.86,101.6 135.26,98.72 135.66,95.95 136.06,93.48 136.45,91.41 136.85,89.8 137.25,88.68 137.64,88.01 138.04,87.74 138.44,87.78 138.83,88.02 139.23,88.36 139.63,88.68 140.02,88.9 140.42,88.93 140.82,88.72 141.21,88.27 141.61,87.58 142.01,86.7 142.4,85.68 142.8,84.59 143.2,83.48 143.59,82.43 143.99,81.48 144.39,80.68 144.78,80.04 145.18,79.59 145.58,79.32 145.97,79.23 146.37,79.25 146.77,79.35 147.16,79.47 147.56,79.54 147.96,79.52 148.35,79.35 148.75,79 149.15,78.46 149.54,77.74 149.94,76.87 150.34,75.89 150.73,74.88 151.13,73.9 151.53,73.01 151.92,72.25 152.32,71.66 152.72,71.25 153.11,71.02 153.51,70.95 153.91,71 154.3,71.15 154.7,71.33 155.1,71.51 155.49,71.61 155.89,71.6 156.29,71.43 156.68,71.09 157.08,70.58 157.48,69.93 157.87,69.16 158.27,68.32 158.67,67.44 159.06,66.59 159.46,65.78 159.86,65.07 160.25,64.46 160.65,63.97 161.05,63.61 161.44,63.37 161.84,63.23 162.24,63.19 162.63,63.24 163.03,63.36 163.43,63.55 163.82,63.79 164.22,64.07 164.62,64.37 165.01,64.69 165.41,65 165.81,65.31 166.2,65.59 166.6,65.84 167,66.07 167.39,66.24 167.79,66.37 168.19,66.42 168.58,66.41 168.98,66.31 169.38,66.12 169.77,65.85 170.17,65.52 170.57,65.14 170.96,64.73 171.36,64.33 171.76,63.94 172.15,63.58 172.55,63.24 172.95,62.92 173.34,62.61 173.74,62.28 174.14,61.93 174.53,61.54 174.93,61.13 175.33,60.7 175.72,60.26 176.12,59.83 176.52,59.42 176.91,59.04 177.31,58.7 177.71,58.4 178.1,58.14 178.5,57.92 178.9,57.73 179.29,57.57 179.69,57.44 180.09,57.32 180.48,57.23 180.88,57.16 181.28,57.12 181.67,57.11 182.07,57.14 182.47,57.2 182.86,57.29 183.26,57.41 183.66,57.54 184.05,57.68 184.45,57.82 184.85,57.95 185.24,58.07 185.64,58.16 186.04,58.22 186.43,58.26 186.83,58.28 187.23,58.28 187.62,58.27 188.02,58.24 188.42,58.18 188.81,58.1 189.21,57.99 189.61,57.86 190,57.69 190.4,57.51 190.8,57.31 191.19,57.11 191.59,56.93 191.99,56.76 192.38,56.61 192.78,56.5 193.18,56.43 193.57,56.4 193.97,56.41 194.37,56.45 194.76,56.52 195.16,56.62 195.56,56.75 195.95,56.89 196.35,57.05 196.75,57.21 197.14,57.37 197.54,57.52 197.94,57.65 198.33,57.76 198.73,57.83 199.13,57.86 199.52,57.85 199.92,57.78 200.32,57.67 200.71,57.52 201.11,57.34 201.51,57.14 201.9,56.94 202.3,56.75 202.7,56.58 203.09,56.43 203.49,56.31 203.89,56.23 204.28,56.17 204.68,56.14 205.08,56.13 205.47,56.13 205.87,56.15 206.27,56.18 206.66,56.2 207.06,56.22 207.46,56.23 207.85,56.22 208.25,56.2 208.65,56.16 209.04,56.11 209.44,56.05 209.84,55.97 210.23,55.89 210.63,55.81 211.03,55.72 211.42,55.65 211.82,55.58 212.22,55.53 212.61,55.49 213.01,55.46 213.41,55.45 213.81,55.45 214.2,55.46 214.6,55.49 215,55.52 215.39,55.56 215.79,55.59 216.19,55.62 216.58,55.64 216.98,55.64 217.38,55.63 217.77,55.59 218.17,55.55 218.57,55.49 218.96,55.43 219.36,55.37 219.76,55.32 220.15,55.28 220.55,55.26 220.95,55.26 221.34,55.27 221.74,55.3 222.14,55.32 222.53,55.35 222.93,55.36 223.33,55.36 223.72,55.35 224.12,55.32 224.52,55.27 224.91,55.22 225.31,55.16 225.71,55.09 226.1,55.03 226.5,54.97 226.9,54.92 227.29,54.87 227.69,54.83 228.09,54.79 228.48,54.75 228.88,54.71 229.28,54.67 229.67,54.63 230.07,54.59 230.47,54.55 230.86,54.52 231.26,54.49 231.66,54.47 232.05,54.46 232.45,54.45 232.85,54.45 233.24,54.46 233.64,54.48 234.04,54.51 234.43,54.54 234.83,54.57 235.23,54.61 235.62,54.64 236.02,54.68 236.42,54.71 236.81,54.74 237.21,54.76 237.61,54.78 238,54.8 238.4,54.81 238.8,54.82 239.19,54.81 239.59,54.8 239.99,54.78 240.38,54.75 240.78,54.71 241.18,54.67 241.57,54.63 241.97,54.58 242.37,54.54 242.76,54.5 243.16,54.47 243.56,54.44 243.95,54.42 244.35,54.41 244.75,54.4 245.14,54.4 245.54,54.4 245.94,54.4 246.33,54.4 246.73,54.41 247.13,54.41 247.52,54.42 247.92,54.42 248.32,54.42 248.71,54.42 249.11,54.41 249.51,54.41 249.9,54.4 250.3,54.39 250.7,54.39 251.09,54.38 251.49,54.37 251.89,54.37 252.28,54.37 252.68,54.36 253.08,54.36 253.47,54.35 253.87,54.34 254.27,54.32 254.66,54.3 255.06,54.27 255.46,54.24 255.85,54.21 256.25,54.17 256.65,54.14 257.04,54.1 257.44,54.07 257.84,54.05 258.23,54.03 258.63,54.01 259.03,54 259.42,53.99 259.82,53.98 260.22,53.97 260.61,53.97 261.01,53.97 261.41,53.97 261.8,53.97" stroke-dasharray="none" stroke="rgb(31,120,180)" stroke-width="0.75" opacity="1" stroke-opacity="1" fill="none"/>
          </g>
          <g id="Fig:densplot_01.xyplot.lines.group.6.panel.1.1.1">
            <polyline id="Fig:densplot_01.xyplot.lines.group.6.panel.1.1.1.1" points="59,53.97 59.4,53.98 59.79,53.98 60.19,54 60.58,54.02 60.98,54.05 61.37,54.09 61.77,54.16 62.16,54.25 62.56,54.38 62.95,54.55 63.35,54.77 63.75,55.05 64.14,55.39 64.54,55.81 64.93,56.31 65.33,56.89 65.72,57.55 66.12,58.28 66.51,59.1 66.91,59.97 67.3,60.9 67.7,61.85 68.09,62.8 68.49,63.73 68.89,64.62 69.28,65.44 69.68,66.2 70.07,66.87 70.47,67.49 70.86,68.06 71.26,68.61 71.65,69.19 72.05,69.84 72.44,70.59 72.84,71.46 73.24,72.45 73.63,73.53 74.03,74.66 74.42,75.81 74.82,76.9 75.21,77.88 75.61,78.71 76,79.37 76.4,79.87 76.79,80.24 77.19,80.57 77.59,80.95 77.98,81.49 78.38,82.28 78.77,83.36 79.17,84.78 79.56,86.51 79.96,88.49 80.35,90.63 80.75,92.8 81.14,94.85 81.54,96.66 81.93,98.07 82.33,99.06 82.73,99.64 83.12,99.86 83.52,99.86 83.91,99.79 84.31,99.85 84.7,100.22 85.1,101.08 85.49,102.57 85.89,104.77 86.28,107.66 86.68,111.17 87.08,115.07 87.47,119.08 87.87,122.88 88.26,126.21 88.66,128.82 89.05,130.59 89.45,131.5 89.84,131.66 90.24,131.31 90.63,130.78 91.03,130.45 91.42,130.73 91.82,132.06 92.22,134.56 92.61,138.25 93.01,142.98 93.4,148.44 93.8,154.22 94.19,159.83 94.59,164.8 94.98,168.72 95.38,171.34 95.77,172.57 96.17,172.53 96.57,171.49 96.96,170.03 97.36,168.72 97.75,168.08 98.15,168.53 98.54,170.28 98.94,173.39 99.33,177.67 99.73,182.73 100.12,188.05 100.52,193.02 100.92,197.03 101.31,199.54 101.71,200.13 102.1,198.9 102.5,196.09 102.89,192.17 103.29,187.76 103.68,183.56 104.08,180.25 104.47,178.39 104.87,178.38 105.26,180.36 105.66,184.2 106.06,189.51 106.45,195.66 106.85,201.74 107.24,206.92 107.64,210.52 108.03,212.02 108.43,211.16 108.82,207.96 109.22,202.7 109.61,195.92 110.01,188.26 110.41,180.47 110.8,173.24 111.2,167.25 111.59,162.94 111.99,160.4 112.38,159.59 112.78,160.32 113.17,162.25 113.57,165 113.96,168.18 114.36,171.41 114.76,174.35 115.15,176.76 115.55,178.47 115.94,179.38 116.34,179.42 116.73,178.71 117.13,177.34 117.52,175.41 117.92,173.04 118.31,170.36 118.71,167.5 119.1,164.55 119.5,161.64 119.9,158.85 120.29,156.26 120.69,153.97 121.08,152.05 121.48,150.56 121.87,149.5 122.27,148.88 122.66,148.64 123.06,148.68 123.45,148.85 123.85,148.95 124.25,148.79 124.64,148.15 125.04,146.88 125.43,144.88 125.83,142.1 126.22,138.63 126.62,134.72 127.01,130.61 127.41,126.57 127.8,122.86 128.2,119.7 128.59,117.23 128.99,115.51 129.39,114.51 129.78,114.14 130.18,114.22 130.57,114.52 130.97,114.8 131.36,114.83 131.76,114.44 132.15,113.56 132.55,112.16 132.94,110.3 133.34,108.09 133.74,105.67 134.13,103.21 134.53,100.85 134.92,98.72 135.32,96.89 135.71,95.42 136.11,94.29 136.5,93.42 136.9,92.75 137.29,92.21 137.69,91.75 138.09,91.33 138.48,90.94 138.88,90.6 139.27,90.33 139.67,90.17 140.06,90.14 140.46,90.26 140.85,90.51 141.25,90.83 141.64,91.14 142.04,91.34 142.43,91.36 142.83,91.11 143.23,90.53 143.62,89.62 144.02,88.4 144.41,86.92 144.81,85.26 145.2,83.53 145.6,81.85 145.99,80.32 146.39,79 146.78,77.95 147.18,77.16 147.58,76.63 147.97,76.32 148.37,76.19 148.76,76.17 149.16,76.21 149.55,76.23 149.95,76.19 150.34,76.05 150.74,75.77 151.13,75.36 151.53,74.81 151.92,74.17 152.32,73.45 152.72,72.69 153.11,71.93 153.51,71.2 153.9,70.51 154.3,69.88 154.69,69.31 155.09,68.79 155.48,68.32 155.88,67.88 156.27,67.49 156.67,67.12 157.07,66.81 157.46,66.54 157.86,66.35 158.25,66.23 158.65,66.19 159.04,66.22 159.44,66.32 159.83,66.45 160.23,66.6 160.62,66.7 161.02,66.75 161.42,66.69 161.81,66.51 162.21,66.21 162.6,65.79 163,65.28 163.39,64.69 163.79,64.06 164.18,63.44 164.58,62.84 164.97,62.3 165.37,61.84 165.76,61.46 166.16,61.17 166.56,60.95 166.95,60.8 167.35,60.71 167.74,60.68 168.14,60.69 168.53,60.76 168.93,60.89 169.32,61.09 169.72,61.36 170.11,61.71 170.51,62.13 170.91,62.62 171.3,63.13 171.7,63.65 172.09,64.13 172.49,64.53 172.88,64.8 173.28,64.9 173.67,64.83 174.07,64.56 174.46,64.1 174.86,63.49 175.25,62.75 175.65,61.95 176.05,61.13 176.44,60.34 176.84,59.61 177.23,58.97 177.63,58.43 178.02,57.99 178.42,57.66 178.81,57.41 179.21,57.25 179.6,57.16 180,57.13 180.4,57.15 180.79,57.21 181.19,57.31 181.58,57.44 181.98,57.59 182.37,57.76 182.77,57.93 183.16,58.09 183.56,58.22 183.95,58.32 184.35,58.37 184.75,58.36 185.14,58.3 185.54,58.19 185.93,58.05 186.33,57.88 186.72,57.71 187.12,57.55 187.51,57.42 187.91,57.34 188.3,57.3 188.7,57.32 189.09,57.38 189.49,57.49 189.89,57.61 190.28,57.74 190.68,57.84 191.07,57.91 191.47,57.93 191.86,57.9 192.26,57.81 192.65,57.68 193.05,57.51 193.44,57.32 193.84,57.14 194.24,56.97 194.63,56.83 195.03,56.73 195.42,56.66 195.82,56.62 196.21,56.61 196.61,56.61 197,56.61 197.4,56.61 197.79,56.6 198.19,56.58 198.59,56.54 198.98,56.48 199.38,56.41 199.77,56.33 200.17,56.24 200.56,56.14 200.96,56.04 201.35,55.94 201.75,55.83 202.14,55.72 202.54,55.62 202.93,55.51 203.33,55.41 203.73,55.31 204.12,55.21 204.52,55.13 204.91,55.05 205.31,54.99 205.7,54.92 206.1,54.87 206.49,54.82 206.89,54.77 207.28,54.73 207.68,54.69 208.08,54.66 208.47,54.64 208.87,54.62 209.26,54.62 209.66,54.63 210.05,54.65 210.45,54.69 210.84,54.73 211.24,54.79 211.63,54.85 212.03,54.91 212.42,54.96 212.82,55.01 213.22,55.04 213.61,55.06 214.01,55.07 214.4,55.06 214.8,55.03 215.19,55 215.59,54.96 215.98,54.92 216.38,54.89 216.77,54.86 217.17,54.84 217.57,54.82 217.96,54.81 218.36,54.8 218.75,54.79 219.15,54.77 219.54,54.76 219.94,54.73 220.33,54.71 220.73,54.69 221.12,54.68 221.52,54.68 221.92,54.71 222.31,54.76 222.71,54.86 223.1,55.02 223.5,55.23 223.89,55.52 224.29,55.88 224.68,56.31 225.08,56.79 225.47,57.3 225.87,57.81 226.26,58.29 226.66,58.71 227.06,59.02 227.45,59.2 227.85,59.24 228.24,59.12 228.64,58.87 229.03,58.48 229.43,58.01 229.82,57.5 230.22,56.98 230.61,56.48 231.01,56.03 231.41,55.64 231.8,55.32 232.2,55.07 232.59,54.88 232.99,54.75 233.38,54.67 233.78,54.62 234.17,54.59 234.57,54.58 234.96,54.58 235.36,54.57 235.75,54.58 236.15,54.58 236.55,54.58 236.94,54.57 237.34,54.57 237.73,54.56 238.13,54.56 238.52,54.54 238.92,54.53 239.31,54.51 239.71,54.48 240.1,54.46 240.5,54.43 240.9,54.4 241.29,54.37 241.69,54.34 242.08,54.31 242.48,54.28 242.87,54.26 243.27,54.24 243.66,54.22 244.06,54.21 244.45,54.2 244.85,54.2 245.25,54.19 245.64,54.2 246.04,54.2 246.43,54.21 246.83,54.21 247.22,54.22 247.62,54.23 248.01,54.24 248.41,54.25 248.8,54.25 249.2,54.26 249.59,54.25 249.99,54.25 250.39,54.24 250.78,54.23 251.18,54.22 251.57,54.21 251.97,54.2 252.36,54.19 252.76,54.17 253.15,54.16 253.55,54.15 253.94,54.14 254.34,54.12 254.74,54.11 255.13,54.09 255.53,54.08 255.92,54.06 256.32,54.04 256.71,54.03 257.11,54.02 257.5,54 257.9,53.99 258.29,53.99 258.69,53.98 259.09,53.98 259.48,53.97 259.88,53.97 260.27,53.97 260.67,53.97 261.06,53.97" stroke-dasharray="none" stroke="rgb(31,120,180)" stroke-width="0.75" opacity="1" stroke-opacity="1" fill="none"/>
          </g>
          <g id="Fig:densplot_01.xyplot.lines.group.7.panel.1.1.1">
            <polyline id="Fig:densplot_01.xyplot.lines.group.7.panel.1.1.1.1" points="59.59,53.97 59.99,53.98 60.38,54 60.78,54.02 61.17,54.06 61.57,54.12 61.96,54.21 62.35,54.35 62.75,54.54 63.14,54.8 63.54,55.15 63.93,55.59 64.33,56.12 64.72,56.75 65.12,57.48 65.51,58.28 65.91,59.12 66.3,59.96 66.69,60.78 67.09,61.53 67.48,62.2 67.88,62.76 68.27,63.2 68.67,63.54 69.06,63.8 69.46,64.02 69.85,64.26 70.25,64.55 70.64,64.97 71.03,65.56 71.43,66.33 71.82,67.29 72.22,68.42 72.61,69.66 73.01,70.95 73.4,72.19 73.8,73.31 74.19,74.24 74.59,74.92 74.98,75.35 75.38,75.57 75.77,75.64 76.16,75.69 76.56,75.84 76.95,76.19 77.35,76.82 77.74,77.75 78.14,78.96 78.53,80.37 78.93,81.9 79.32,83.41 79.72,84.77 80.11,85.89 80.5,86.68 80.9,87.13 81.29,87.26 81.69,87.17 82.08,87.02 82.48,86.95 82.87,87.15 83.27,87.77 83.66,88.95 84.06,90.78 84.45,93.31 84.84,96.51 85.24,100.25 85.63,104.37 86.03,108.61 86.42,112.67 86.82,116.22 87.21,119.04 87.61,121.01 88,122.1 88.4,122.41 88.79,122.18 89.18,121.73 89.58,121.42 89.97,121.64 90.37,122.7 90.76,124.84 91.16,128.14 91.55,132.53 91.95,137.81 92.34,143.46 92.74,149.02 93.13,153.98 93.53,157.93 93.92,160.59 94.31,161.83 94.71,161.75 95.1,160.61 95.5,158.85 95.89,157 96.29,155.64 96.68,155.31 97.08,156.51 97.47,159.46 97.87,164.04 98.26,169.98 98.65,176.8 99.05,183.89 99.44,190.56 99.84,196.12 100.23,200.01 100.63,201.82 101.02,201.37 101.42,198.74 101.81,194.23 102.21,188.38 102.6,181.93 102.99,175.76 103.39,170.61 103.78,167.15 104.18,165.85 104.57,166.98 104.97,170.58 105.36,176.41 105.76,183.98 106.15,192.58 106.55,201.34 106.94,209.31 107.33,215.55 107.73,219.09 108.12,219.55 108.52,216.95 108.91,211.63 109.31,204.29 109.7,195.83 110.1,187.29 110.49,179.68 110.89,173.85 111.28,170.39 111.68,169.59 112.07,171.38 112.46,175.39 112.86,180.97 113.25,187.16 113.65,192.95 114.04,197.46 114.44,200.03 114.83,200.26 115.23,198.04 115.62,193.62 116.02,187.49 116.41,180.38 116.8,173.08 117.2,166.37 117.59,160.94 117.99,157.24 118.38,155.66 118.78,155.97 119.17,157.85 119.57,160.81 119.96,164.25 120.36,167.55 120.75,170.12 121.14,171.48 121.54,171.32 121.93,169.51 122.33,166.14 122.72,161.45 123.12,155.85 123.51,149.79 123.91,143.8 124.3,138.3 124.7,133.59 125.09,129.83 125.48,127.13 125.88,125.48 126.27,124.79 126.67,124.92 127.06,125.68 127.46,126.85 127.85,128.16 128.25,129.36 128.64,130.19 129.04,130.36 129.43,129.76 129.83,128.35 130.22,126.17 130.61,123.34 131.01,120.07 131.4,116.58 131.8,113.13 132.19,109.96 132.59,107.25 132.98,105.15 133.38,103.74 133.77,103 134.17,102.91 134.56,103.3 134.95,103.97 135.35,104.7 135.74,105.31 136.14,105.61 136.53,105.46 136.93,104.78 137.32,103.55 137.72,101.83 138.11,99.72 138.51,97.37 138.9,94.93 139.29,92.57 139.69,90.46 140.08,88.68 140.48,87.3 140.87,86.34 141.27,85.8 141.66,85.63 142.06,85.78 142.45,86.15 142.85,86.64 143.24,87.13 143.63,87.5 144.03,87.65 144.42,87.49 144.82,86.93 145.21,86 145.61,84.75 146,83.27 146.4,81.65 146.79,80.01 147.19,78.44 147.58,77 147.98,75.75 148.37,74.68 148.76,73.8 149.16,73.07 149.55,72.48 149.95,71.98 150.34,71.57 150.74,71.23 151.13,70.96 151.53,70.78 151.92,70.67 152.32,70.65 152.71,70.71 153.1,70.82 153.5,70.97 153.89,71.11 154.29,71.21 154.68,71.24 155.08,71.17 155.47,70.98 155.87,70.69 156.26,70.3 156.66,69.85 157.05,69.35 157.44,68.84 157.84,68.32 158.23,67.82 158.63,67.35 159.02,66.91 159.42,66.53 159.81,66.2 160.21,65.95 160.6,65.77 161,65.69 161.39,65.7 161.78,65.8 162.18,65.98 162.57,66.23 162.97,66.53 163.36,66.84 163.76,67.12 164.15,67.34 164.55,67.44 164.94,67.4 165.34,67.19 165.73,66.79 166.13,66.21 166.52,65.49 166.91,64.66 167.31,63.79 167.7,62.93 168.1,62.11 168.49,61.39 168.89,60.78 169.28,60.31 169.68,59.97 170.07,59.75 170.47,59.63 170.86,59.59 171.25,59.61 171.65,59.65 172.04,59.7 172.44,59.73 172.83,59.74 173.23,59.74 173.62,59.73 174.02,59.71 174.41,59.7 174.81,59.7 175.2,59.71 175.59,59.73 175.99,59.74 176.38,59.72 176.78,59.66 177.17,59.54 177.57,59.36 177.96,59.12 178.36,58.82 178.75,58.49 179.15,58.15 179.54,57.82 179.94,57.52 180.33,57.27 180.72,57.08 181.12,56.95 181.51,56.88 181.91,56.86 182.3,56.88 182.7,56.93 183.09,57 183.49,57.09 183.88,57.2 184.28,57.34 184.67,57.52 185.06,57.75 185.46,58.05 185.85,58.44 186.25,58.91 186.64,59.46 187.04,60.06 187.43,60.66 187.83,61.21 188.22,61.64 188.62,61.91 189.01,61.98 189.4,61.84 189.8,61.48 190.19,60.95 190.59,60.28 190.98,59.53 191.38,58.75 191.77,58 192.17,57.32 192.56,56.74 192.96,56.27 193.35,55.89 193.74,55.6 194.14,55.39 194.53,55.24 194.93,55.14 195.32,55.08 195.72,55.05 196.11,55.05 196.51,55.06 196.9,55.09 197.3,55.14 197.69,55.2 198.09,55.26 198.48,55.33 198.87,55.41 199.27,55.49 199.66,55.56 200.06,55.63 200.45,55.68 200.85,55.71 201.24,55.71 201.64,55.69 202.03,55.64 202.43,55.58 202.82,55.5 203.21,55.42 203.61,55.34 204,55.27 204.4,55.21 204.79,55.17 205.19,55.13 205.58,55.1 205.98,55.07 206.37,55.04 206.77,55 207.16,54.95 207.55,54.9 207.95,54.85 208.34,54.79 208.74,54.73 209.13,54.68 209.53,54.64 209.92,54.62 210.32,54.6 210.71,54.6 211.11,54.62 211.5,54.64 211.89,54.68 212.29,54.72 212.68,54.76 213.08,54.8 213.47,54.84 213.87,54.86 214.26,54.86 214.66,54.86 215.05,54.84 215.45,54.8 215.84,54.76 216.24,54.71 216.63,54.66 217.02,54.61 217.42,54.56 217.81,54.5 218.21,54.45 218.6,54.4 219,54.36 219.39,54.32 219.79,54.29 220.18,54.27 220.58,54.27 220.97,54.27 221.36,54.28 221.76,54.31 222.15,54.34 222.55,54.37 222.94,54.39 223.34,54.42 223.73,54.44 224.13,54.45 224.52,54.45 224.92,54.45 225.31,54.44 225.7,54.43 226.1,54.41 226.49,54.4 226.89,54.4 227.28,54.4 227.68,54.4 228.07,54.41 228.47,54.42 228.86,54.45 229.26,54.47 229.65,54.5 230.04,54.54 230.44,54.58 230.83,54.62 231.23,54.67 231.62,54.71 232.02,54.75 232.41,54.78 232.81,54.8 233.2,54.82 233.6,54.82 233.99,54.81 234.39,54.8 234.78,54.78 235.17,54.76 235.57,54.75 235.96,54.74 236.36,54.74 236.75,54.75 237.15,54.76 237.54,54.77 237.94,54.78 238.33,54.78 238.73,54.78 239.12,54.77 239.51,54.75 239.91,54.73 240.3,54.7 240.7,54.67 241.09,54.65 241.49,54.62 241.88,54.6 242.28,54.58 242.67,54.56 243.07,54.54 243.46,54.53 243.85,54.51 244.25,54.49 244.64,54.48 245.04,54.47 245.43,54.46 245.83,54.47 246.22,54.47 246.62,54.48 247.01,54.5 247.41,54.51 247.8,54.51 248.19,54.52 248.59,54.51 248.98,54.49 249.38,54.47 249.77,54.44 250.17,54.41 250.56,54.37 250.96,54.34 251.35,54.3 251.75,54.27 252.14,54.24 252.54,54.22 252.93,54.2 253.32,54.18 253.72,54.17 254.11,54.15 254.51,54.13 254.9,54.12 255.3,54.1 255.69,54.08 256.09,54.06 256.48,54.05 256.88,54.03 257.27,54.02 257.66,54 258.06,53.99 258.45,53.98 258.85,53.98 259.24,53.97 259.64,53.97 260.03,53.97 260.43,53.97 260.82,53.97 261.22,53.97" stroke-dasharray="none" stroke="rgb(31,120,180)" stroke-width="0.75" opacity="1" stroke-opacity="1" fill="none"/>
          </g>
        </g>
        <g id="Fig:densplot_01.panel.1.1.off.vp.2">
          <g id="Fig:densplot_01.border.panel.1.1.1">
            <rect id="Fig:densplot_01.border.panel.1.1.1.1" x="44.8" y="42.19" width="231.2" height="191.81" transform="" stroke="rgb(0,0,0)" stroke-dasharray="none" stroke-width="0.75" opacity="1" fill="none" stroke-opacity="1" fill-opacity="0"/>
          </g>
        </g>
        <g id="Fig:densplot_01..1"/>
      </g>
    </g>
  </g>
</svg>